<?xml version="1.0" encoding="UTF-8" standalone="no"?>
<!DOCTYPE svg PUBLIC "-//W3C//DTD SVG 1.1//EN" "http://www.w3.org/Graphics/SVG/1.1/DTD/svg11.dtd">
<svg width="100%" height="100%" viewBox="0 0 150 155" version="1.1" xmlns="http://www.w3.org/2000/svg" xmlns:xlink="http://www.w3.org/1999/xlink" xml:space="preserve" xmlns:serif="http://www.serif.com/" style="fill-rule:evenodd;clip-rule:evenodd;stroke-miterlimit:10;">
    <g transform="matrix(1,0,0,1,-467.249,-472.483)">
        <g transform="matrix(1,0,0,1,533.777,499.265)">
            <path d="M0,100.893L0,104.427C-2.088,102.176 -5.007,100.893 -8.077,100.893C-14.154,100.893 -19.098,105.837 -19.098,111.914C-19.098,117.991 -14.154,122.935 -8.077,122.935C-5.006,122.935 -2.088,121.653 0,119.401L0,122.935L2.944,122.935L2.944,100.893L0,100.893ZM0,111.914C0,116.368 -3.623,119.992 -8.077,119.992C-12.53,119.992 -16.154,116.368 -16.154,111.914C-16.154,107.46 -12.53,103.837 -8.077,103.837C-3.623,103.837 0,107.46 0,111.914ZM75.54,100.893L75.54,104.427C73.452,102.176 70.533,100.893 67.463,100.893C61.386,100.893 56.442,105.837 56.442,111.914C56.442,117.991 61.386,122.935 67.463,122.935C70.533,122.935 73.452,121.653 75.54,119.401L75.54,122.935L78.483,122.935L78.483,100.893L75.54,100.893ZM67.463,119.992C63.009,119.992 59.386,116.368 59.386,111.914C59.386,107.46 63.009,103.837 67.463,103.837C71.916,103.837 75.54,107.46 75.54,111.914C75.54,116.368 71.916,119.992 67.463,119.992ZM43.044,100.893L32.024,100.893L32.024,122.935L43.044,122.935C49.121,122.935 54.065,117.991 54.065,111.914C54.065,105.837 49.121,100.893 43.044,100.893ZM43.044,119.992L34.967,119.992L34.967,103.837L43.044,103.837C47.498,103.837 51.121,107.46 51.121,111.914C51.121,116.368 47.498,119.992 43.044,119.992ZM-25.052,100.893L-25.052,119.992L-31.844,119.992L-31.844,100.893L-34.788,100.893L-34.788,122.936L-22.108,122.936L-22.108,100.893L-25.052,100.893ZM-45.326,111.747L-45.326,114.691L-43.186,114.691C-44.352,117.871 -47.37,119.992 -50.769,119.992C-55.222,119.992 -58.846,116.368 -58.846,111.914C-58.846,107.461 -55.222,103.837 -50.769,103.837C-47.292,103.837 -44.214,106.056 -43.109,109.358L-43.071,109.472L-40.021,109.472L-40.072,109.264C-41.294,104.335 -45.692,100.893 -50.769,100.893C-56.846,100.893 -61.79,105.837 -61.79,111.914C-61.79,117.992 -56.846,122.935 -50.769,122.935C-45.736,122.935 -41.369,119.552 -40.104,114.691L-37.799,114.691L-37.799,111.747L-45.326,111.747ZM19.638,111.549L19.638,100.893L6.958,100.893L6.958,122.936L9.902,122.936L9.902,113.63L17.556,113.63L26.861,122.936L31.025,122.936L19.638,111.549ZM16.694,110.687L9.902,110.687L9.902,103.838L16.694,103.838L16.694,110.687ZM51.367,71.169C45.29,71.169 40.346,76.113 40.346,82.19C40.346,88.267 45.29,93.211 51.367,93.211C57.444,93.211 62.388,88.267 62.388,82.19C62.388,76.113 57.444,71.169 51.367,71.169ZM59.444,82.19C59.444,86.644 55.821,90.267 51.367,90.267C46.913,90.267 43.29,86.644 43.29,82.19C43.29,77.736 46.913,74.113 51.367,74.113C55.821,74.113 59.444,77.736 59.444,82.19ZM11.039,71.169L11.039,90.268L6.044,90.268L6.044,77.509C6.044,74.013 3.2,71.169 -0.296,71.169C-3.792,71.169 -6.637,74.013 -6.637,77.509L-6.637,93.211L-3.693,93.211L-3.693,77.509C-3.693,75.636 -2.169,74.112 -0.296,74.112C1.576,74.112 3.1,75.636 3.1,77.509L3.1,93.211L13.983,93.211L13.983,71.169L11.039,71.169ZM-10.347,74.113L-10.347,71.169L-21.722,71.169L-21.722,93.211L-10.347,93.211L-10.347,90.267L-18.778,90.267L-18.778,74.113L-10.347,74.113ZM38.071,74.113L38.071,71.169L26.696,71.169L26.696,93.211L38.071,93.211L38.071,90.267L29.64,90.267L29.64,74.113L38.071,74.113ZM-61.79,71.169L-61.79,74.113L-56.542,74.113L-56.542,93.211L-53.598,93.211L-53.598,74.113L-48.351,74.113L-48.351,71.169L-61.79,71.169ZM18.867,93.211L21.811,93.211L21.811,71.168L18.867,71.168L18.867,93.211ZM-28.407,65.92L-36.747,67.28L-36.747,68.894L-28.407,68.894L-28.407,65.92ZM-36.393,71.168C-42.47,71.168 -47.414,76.113 -47.414,82.19C-47.414,88.267 -42.47,93.211 -36.393,93.211C-31.316,93.211 -26.918,89.769 -25.696,84.839L-25.645,84.632L-28.695,84.632L-28.733,84.747C-29.838,88.049 -32.917,90.267 -36.393,90.267C-40.79,90.267 -44.378,86.734 -44.468,82.357L-25.372,82.357L-25.372,82.19C-25.372,76.113 -30.316,71.168 -36.393,71.168ZM-43.975,79.413C-42.81,76.233 -39.792,74.113 -36.393,74.113C-32.994,74.113 -29.976,76.233 -28.81,79.413L-43.975,79.413ZM-29.171,-22.043C-35.247,-22.043 -40.191,-17.099 -40.191,-11.022C-40.191,-4.944 -35.247,0 -29.171,0C-23.094,0 -18.149,-4.944 -18.149,-11.022C-18.149,-17.099 -23.094,-22.043 -29.171,-22.043ZM-21.094,-11.022C-21.094,-6.567 -24.717,-2.944 -29.171,-2.944C-33.624,-2.944 -37.247,-6.567 -37.247,-11.022C-37.247,-15.476 -33.624,-19.099 -29.171,-19.099C-24.717,-19.099 -21.094,-15.476 -21.094,-11.022ZM-3.331,0L-3.331,-2.944L-11.762,-2.944L-11.762,-22.043L-14.706,-22.043L-14.706,0L-3.331,0ZM0.912,0L3.856,0L3.856,-22.043L0.912,-22.043L0.912,0ZM-48.425,-22.033L-61.79,-22.033L-61.79,0L-58.846,0L-58.846,-6.14L-58.844,-6.14L-58.844,-9.352L-48.425,-9.352C-44.929,-9.352 -42.085,-12.197 -42.085,-15.693C-42.085,-19.188 -44.929,-22.033 -48.425,-22.033ZM-48.425,-12.297L-58.844,-12.297L-58.844,-19.089L-48.425,-19.089C-46.552,-19.089 -45.029,-17.565 -45.029,-15.693C-45.029,-13.82 -46.552,-12.297 -48.425,-12.297Z" style="fill:none;fill-rule:nonzero;stroke:black;stroke-width:0.94px;"/>
        </g>
        <g transform="matrix(1,0,0,1,473.237,512.358)">
            <path d="M0,8.413L5.138,8.413L5.138,9.612L-1.427,9.612L-1.427,-1.199L5.138,-1.199L5.138,0L0,0L0,3.469L4.441,3.469L4.441,4.668L0,4.668L0,8.413Z" style="fill:rgb(41,51,138);fill-rule:nonzero;"/>
        </g>
        <g transform="matrix(1,0,0,1,485.879,514.596)">
            <path d="M0,3.938C0,2.852 -0.907,2.447 -2.026,2.366C-2.593,2.318 -3.144,2.253 -3.711,2.171C-4.83,1.993 -5.737,1.248 -5.737,-0.26L-5.737,-0.876C-5.737,-1.751 -5.414,-2.432 -4.781,-2.934C-4.133,-3.437 -3.306,-3.68 -2.318,-3.68C-1.328,-3.68 -0.502,-3.437 0.13,-2.934C0.779,-2.432 1.102,-1.751 1.102,-0.876L1.102,-0.13L-0.324,-0.13L-0.324,-0.876C-0.324,-1.848 -1.102,-2.481 -2.318,-2.481C-3.533,-2.481 -4.311,-1.848 -4.311,-0.876L-4.311,-0.26C-4.311,0.858 -3.258,1.085 -2.059,1.215C-0.437,1.393 1.427,1.588 1.427,3.938L1.427,4.684C1.427,5.575 1.07,6.288 0.357,6.823C-0.356,7.358 -1.248,7.618 -2.318,7.618C-3.387,7.618 -4.279,7.358 -4.992,6.823C-5.706,6.288 -6.062,5.575 -6.062,4.684L-6.062,3.954L-4.636,3.954L-4.636,4.684C-4.636,5.705 -3.679,6.418 -2.318,6.418C-0.956,6.418 0,5.705 0,4.684L0,3.938Z" style="fill:rgb(41,51,138);fill-rule:nonzero;"/>
        </g>
        <g transform="matrix(1,0,0,1,490.58,514.222)">
            <path d="M0,4.685C0,5.269 0.227,5.771 0.68,6.176C1.134,6.581 1.702,6.792 2.382,6.792C3.063,6.792 3.631,6.581 4.084,6.176C4.538,5.771 4.765,5.269 4.765,4.685L4.765,3.891L6.192,3.891L6.192,4.636C6.192,5.625 5.819,6.419 5.073,7.052C4.344,7.683 3.436,7.991 2.382,7.991C1.328,7.991 0.421,7.683 -0.324,7.052C-1.054,6.419 -1.427,5.625 -1.427,4.636L-1.427,0.049C-1.427,-0.875 -1.054,-1.653 -0.308,-2.317C0.454,-2.982 1.345,-3.306 2.382,-3.306C3.436,-3.306 4.344,-2.999 5.073,-2.366C5.819,-1.734 6.192,-0.939 6.192,0.049L6.192,0.811L4.765,0.811L4.765,0.001C4.765,-0.583 4.538,-1.086 4.084,-1.49C3.631,-1.896 3.063,-2.107 2.382,-2.107C1.702,-2.107 1.134,-1.896 0.68,-1.49C0.227,-1.086 0,-0.583 0,0.001L0,4.685Z" style="fill:rgb(41,51,138);fill-rule:nonzero;"/>
        </g>
        <g transform="matrix(1,0,0,1,506.69,514.401)">
            <path d="M0,4.327C0,5.349 -0.389,6.175 -1.167,6.84C-1.945,7.488 -2.885,7.812 -4.003,7.812C-5.122,7.812 -6.062,7.488 -6.841,6.84C-7.618,6.175 -8.007,5.349 -8.007,4.327L-8.007,-0.001C-8.007,-0.957 -7.618,-1.767 -6.824,-2.448C-6.03,-3.145 -5.089,-3.485 -4.003,-3.485C-2.885,-3.485 -1.945,-3.161 -1.167,-2.496C-0.389,-1.848 0,-1.022 0,-0.001L0,4.327ZM-6.58,4.376C-6.58,4.992 -6.337,5.527 -5.835,5.964C-5.332,6.402 -4.733,6.613 -4.003,6.613C-3.274,6.613 -2.675,6.402 -2.172,5.964C-1.669,5.527 -1.426,4.992 -1.426,4.376L-1.426,-0.049C-1.426,-0.665 -1.669,-1.183 -2.172,-1.622C-2.675,-2.059 -3.274,-2.286 -4.003,-2.286C-4.733,-2.286 -5.332,-2.059 -5.835,-1.622C-6.337,-1.183 -6.58,-0.665 -6.58,-0.049L-6.58,4.376Z" style="fill:rgb(41,51,138);fill-rule:nonzero;"/>
        </g>
        <g transform="matrix(1,0,0,1,515.362,512.358)">
            <path d="M0,8.413L0,9.612L-6.403,9.612L-6.403,-1.199L-4.976,-1.199L-4.976,8.413L0,8.413Z" style="fill:rgb(41,51,138);fill-rule:nonzero;"/>
        </g>
        <g transform="matrix(1,0,0,1,523.725,511.159)">
            <path d="M0,10.811L-0.746,8.509L-5.187,8.509L-5.933,10.811L-7.489,10.811L-3.745,0L-2.188,0L1.556,10.811L0,10.811ZM-2.983,1.799L-4.798,7.294L-1.151,7.294L-2.934,1.799L-2.983,1.799Z" style="fill:rgb(41,51,138);fill-rule:nonzero;"/>
        </g>
        <g transform="matrix(1,0,0,1,536.431,514.596)">
            <path d="M0,3.938C0,2.852 -0.907,2.447 -2.026,2.366C-2.594,2.318 -3.144,2.253 -3.711,2.171C-4.83,1.993 -5.737,1.248 -5.737,-0.26L-5.737,-0.876C-5.737,-1.751 -5.414,-2.432 -4.781,-2.934C-4.133,-3.437 -3.306,-3.68 -2.318,-3.68C-1.328,-3.68 -0.502,-3.437 0.13,-2.934C0.779,-2.432 1.102,-1.751 1.102,-0.876L1.102,-0.13L-0.324,-0.13L-0.324,-0.876C-0.324,-1.848 -1.102,-2.481 -2.318,-2.481C-3.533,-2.481 -4.311,-1.848 -4.311,-0.876L-4.311,-0.26C-4.311,0.858 -3.258,1.085 -2.059,1.215C-0.437,1.393 1.427,1.588 1.427,3.938L1.427,4.684C1.427,5.575 1.07,6.288 0.357,6.823C-0.356,7.358 -1.248,7.618 -2.318,7.618C-3.387,7.618 -4.279,7.358 -4.992,6.823C-5.706,6.288 -6.062,5.575 -6.062,4.684L-6.062,3.954L-4.636,3.954L-4.636,4.684C-4.636,5.705 -3.679,6.418 -2.318,6.418C-0.956,6.418 0,5.705 0,4.684L0,3.938Z" style="fill:rgb(41,51,138);fill-rule:nonzero;"/>
        </g>
        <g transform="matrix(1,0,0,1,539.786,522.213)">
            <path d="M0,-11.054L1.426,-11.054L1.426,-3.306C1.426,-2.722 1.653,-2.22 2.107,-1.815C2.561,-1.41 3.128,-1.199 3.809,-1.199C4.489,-1.199 5.057,-1.41 5.511,-1.815C5.965,-2.22 6.192,-2.722 6.192,-3.306L6.192,-11.054L7.618,-11.054L7.618,-3.355C7.618,-2.366 7.245,-1.572 6.5,-0.939C5.77,-0.308 4.863,0 3.809,0C2.755,0 1.847,-0.308 1.102,-0.939C0.372,-1.572 0,-2.366 0,-3.355L0,-11.054Z" style="fill:rgb(41,51,138);fill-rule:nonzero;"/>
        </g>
        <g transform="matrix(1,0,0,1,556.722,517.773)">
            <path d="M0,-2.415C0,-1.524 -0.324,-0.811 -0.989,-0.26C-1.637,0.291 -2.447,0.567 -3.403,0.567L-5.527,0.567L-5.527,4.198L-6.953,4.198L-6.953,-6.613L-3.403,-6.613C-2.447,-6.613 -1.637,-6.338 -0.989,-5.787C-0.324,-5.236 0,-4.522 0,-3.631L0,-2.415ZM-5.527,-0.632L-3.403,-0.632C-2.253,-0.632 -1.426,-1.394 -1.426,-2.415L-1.426,-3.631C-1.426,-4.652 -2.253,-5.414 -3.403,-5.414L-5.527,-5.414L-5.527,-0.632Z" style="fill:rgb(41,51,138);fill-rule:nonzero;"/>
        </g>
        <g transform="matrix(1,0,0,1,559.867,512.358)">
            <path d="M0,8.413L5.138,8.413L5.138,9.612L-1.427,9.612L-1.427,-1.199L5.138,-1.199L5.138,0L0,0L0,3.469L4.441,3.469L4.441,4.668L0,4.668L0,8.413Z" style="fill:rgb(41,51,138);fill-rule:nonzero;"/>
        </g>
        <g transform="matrix(1,0,0,1,573.838,517.773)">
            <path d="M0,-2.415C0,-1.2 -0.697,-0.227 -1.783,0.243L0,4.198L-1.54,4.198L-3.16,0.567L-5.527,0.567L-5.527,4.198L-6.954,4.198L-6.954,-6.613L-3.403,-6.613C-2.447,-6.613 -1.637,-6.338 -0.989,-5.787C-0.324,-5.236 0,-4.522 0,-3.631L0,-2.415ZM-5.527,-0.632L-3.403,-0.632C-2.253,-0.632 -1.426,-1.394 -1.426,-2.415L-1.426,-3.631C-1.426,-4.652 -2.253,-5.414 -3.403,-5.414L-5.527,-5.414L-5.527,-0.632Z" style="fill:rgb(41,51,138);fill-rule:nonzero;"/>
        </g>
        <g transform="matrix(1,0,0,1,578.602,512.358)">
            <path d="M0,8.413L1.783,8.413L1.783,9.612L-3.21,9.612L-3.21,8.413L-1.426,8.413L-1.426,0L-3.21,0L-3.21,-1.199L1.783,-1.199L1.783,0L0,0L0,8.413Z" style="fill:rgb(41,51,138);fill-rule:nonzero;"/>
        </g>
        <g transform="matrix(1,0,0,1,590.078,514.401)">
            <path d="M0,4.327C0,5.349 -0.389,6.175 -1.167,6.84C-1.945,7.488 -2.885,7.812 -4.003,7.812C-5.122,7.812 -6.062,7.488 -6.84,6.84C-7.618,6.175 -8.007,5.349 -8.007,4.327L-8.007,-0.001C-8.007,-0.957 -7.618,-1.767 -6.824,-2.448C-6.03,-3.145 -5.089,-3.485 -4.003,-3.485C-2.885,-3.485 -1.945,-3.161 -1.167,-2.496C-0.389,-1.848 0,-1.022 0,-0.001L0,4.327ZM-6.581,4.376C-6.581,4.992 -6.337,5.527 -5.835,5.964C-5.332,6.402 -4.733,6.613 -4.003,6.613C-3.274,6.613 -2.675,6.402 -2.171,5.964C-1.669,5.527 -1.426,4.992 -1.426,4.376L-1.426,-0.049C-1.426,-0.665 -1.669,-1.183 -2.171,-1.622C-2.675,-2.059 -3.274,-2.286 -4.003,-2.286C-4.733,-2.286 -5.332,-2.059 -5.835,-1.622C-6.337,-1.183 -6.581,-0.665 -6.581,-0.049L-6.581,4.376Z" style="fill:rgb(41,51,138);fill-rule:nonzero;"/>
        </g>
        <g transform="matrix(1,0,0,1,599.3,517.773)">
            <path d="M0,-2.415C0,-1.2 -0.697,-0.227 -1.783,0.243L0,4.198L-1.54,4.198L-3.16,0.567L-5.527,0.567L-5.527,4.198L-6.954,4.198L-6.954,-6.613L-3.403,-6.613C-2.447,-6.613 -1.637,-6.338 -0.989,-5.787C-0.324,-5.236 0,-4.522 0,-3.631L0,-2.415ZM-5.527,-0.632L-3.403,-0.632C-2.253,-0.632 -1.426,-1.394 -1.426,-2.415L-1.426,-3.631C-1.426,-4.652 -2.253,-5.414 -3.403,-5.414L-5.527,-5.414L-5.527,-0.632Z" style="fill:rgb(41,51,138);fill-rule:nonzero;"/>
        </g>
        <g transform="matrix(1,0,0,1,478.489,537.142)">
            <path d="M0,-7.441L-2.723,-7.441L-2.723,1.685L-4.766,1.685L-4.766,-7.441L-7.489,-7.441L-7.489,-9.126L0,-9.126L0,-7.441Z" style="fill:rgb(41,51,138);fill-rule:nonzero;"/>
        </g>
        <g transform="matrix(1,0,0,1,482.022,529.702)">
            <path d="M0,7.439L4.766,7.439L4.766,9.125L-2.042,9.125L-2.042,-1.686L4.766,-1.686L4.766,-0.001L0,-0.001L0,2.739L4.069,2.739L4.069,4.424L0,4.424L0,7.439Z" style="fill:rgb(41,51,138);fill-rule:nonzero;"/>
        </g>
        <g transform="matrix(1,0,0,1,494.307,531.873)">
            <path d="M0,3.096L2.043,3.096L2.043,3.776C2.043,4.83 1.67,5.673 0.908,6.289C0.163,6.889 -0.777,7.197 -1.896,7.197C-3.015,7.197 -3.954,6.889 -4.716,6.289C-5.462,5.673 -5.835,4.83 -5.835,3.776L-5.835,-0.665C-5.835,-1.734 -5.462,-2.577 -4.716,-3.177C-3.954,-3.793 -3.015,-4.101 -1.896,-4.101C-0.777,-4.101 0.163,-3.793 0.908,-3.177C1.67,-2.577 2.043,-1.734 2.043,-0.665L2.043,0.016L0,0.016L0,-0.713C0,-1.832 -0.777,-2.415 -1.896,-2.415C-3.015,-2.415 -3.793,-1.832 -3.793,-0.713L-3.793,3.809C-3.793,4.928 -3.015,5.511 -1.896,5.511C-0.777,5.511 0,4.928 0,3.809L0,3.096Z" style="fill:rgb(41,51,138);fill-rule:nonzero;"/>
        </g>
        <g transform="matrix(1,0,0,1,505.976,538.827)">
            <path d="M0,-10.811L0,0L-2.042,0L-5.462,-6.645L-5.56,-6.613L-5.544,0L-7.586,0L-7.586,-10.811L-5.544,-10.811L-2.107,-4.149L-2.026,-4.182L-2.042,-10.811L0,-10.811Z" style="fill:rgb(41,51,138);fill-rule:nonzero;"/>
        </g>
        <g transform="matrix(1,0,0,1,516.512,531.322)">
            <path d="M0,4.199C0,5.285 -0.389,6.16 -1.183,6.792C-1.977,7.424 -2.95,7.748 -4.133,7.748C-5.316,7.748 -6.289,7.424 -7.084,6.792C-7.877,6.16 -8.267,5.285 -8.267,4.199L-8.267,0.017C-8.267,-1.085 -7.877,-1.961 -7.084,-2.593C-6.289,-3.225 -5.316,-3.549 -4.133,-3.549C-2.95,-3.549 -1.977,-3.225 -1.183,-2.593C-0.389,-1.961 0,-1.085 0,0.017L0,4.199ZM-2.042,-0.032C-2.042,-1.215 -2.902,-1.863 -4.133,-1.863C-5.365,-1.863 -6.224,-1.215 -6.224,-0.032L-6.224,4.231C-6.224,5.414 -5.365,6.063 -4.133,6.063C-2.902,6.063 -2.042,5.414 -2.042,4.231L-2.042,-0.032Z" style="fill:rgb(41,51,138);fill-rule:nonzero;"/>
        </g>
        <g transform="matrix(1,0,0,1,525.442,529.702)">
            <path d="M0,7.439L0,9.125L-6.662,9.125L-6.662,-1.686L-4.62,-1.686L-4.62,7.439L0,7.439Z" style="fill:rgb(41,51,138);fill-rule:nonzero;"/>
        </g>
        <g transform="matrix(1,0,0,1,535.021,531.322)">
            <path d="M0,4.199C0,5.285 -0.389,6.16 -1.183,6.792C-1.977,7.424 -2.95,7.748 -4.133,7.748C-5.316,7.748 -6.289,7.424 -7.084,6.792C-7.877,6.16 -8.266,5.285 -8.266,4.199L-8.266,0.017C-8.266,-1.085 -7.877,-1.961 -7.084,-2.593C-6.289,-3.225 -5.316,-3.549 -4.133,-3.549C-2.95,-3.549 -1.977,-3.225 -1.183,-2.593C-0.389,-1.961 0,-1.085 0,0.017L0,4.199ZM-2.042,-0.032C-2.042,-1.215 -2.902,-1.863 -4.133,-1.863C-5.365,-1.863 -6.224,-1.215 -6.224,-0.032L-6.224,4.231C-6.224,5.414 -5.365,6.063 -4.133,6.063C-2.902,6.063 -2.042,5.414 -2.042,4.231L-2.042,-0.032Z" style="fill:rgb(41,51,138);fill-rule:nonzero;"/>
        </g>
        <g transform="matrix(1,0,0,1,543.125,532.716)">
            <path d="M0,1.41L-1.994,1.41L-1.994,-0.275L2.042,-0.275L2.042,2.868C2.042,3.955 1.653,4.798 0.875,5.43C0.113,6.046 -0.843,6.354 -1.994,6.354C-3.145,6.354 -4.101,6.046 -4.879,5.43C-5.641,4.798 -6.03,3.955 -6.03,2.868L-6.03,-1.443C-6.03,-2.529 -5.641,-3.371 -4.879,-4.004C-4.101,-4.636 -3.145,-4.944 -1.994,-4.944C-0.843,-4.944 0.113,-4.636 0.875,-4.004C1.653,-3.371 2.042,-2.529 2.042,-1.443L2.042,-1.232L0,-1.232L0,-1.492C0,-2.658 -0.811,-3.258 -1.994,-3.258C-3.177,-3.258 -3.988,-2.658 -3.988,-1.492L-3.988,2.901C-3.988,4.069 -3.177,4.668 -1.994,4.668C-0.811,4.668 0,4.069 0,2.901L0,1.41Z" style="fill:rgb(41,51,138);fill-rule:nonzero;"/>
        </g>
        <g transform="matrix(1,0,0,1,550.612,529.702)">
            <path d="M0,7.439L1.75,7.439L1.75,9.125L-3.793,9.125L-3.793,7.439L-2.042,7.439L-2.042,-0.001L-3.793,-0.001L-3.793,-1.686L1.75,-1.686L1.75,-0.001L0,-0.001L0,7.439Z" style="fill:rgb(41,51,138);fill-rule:nonzero;"/>
        </g>
        <g transform="matrix(1,0,0,1,560.564,528.016)">
            <path d="M0,10.811L-0.567,8.834L-4.328,8.834L-4.879,10.811L-7.1,10.811L-3.549,0L-1.329,0L2.204,10.811L0,10.811ZM-2.512,2.512L-3.841,7.148L-1.054,7.148L-2.367,2.512L-2.512,2.512Z" style="fill:rgb(41,51,138);fill-rule:nonzero;"/>
        </g>
        <g transform="matrix(1,0,0,1,477.646,549.572)">
            <path d="M0,1.41L-1.994,1.41L-1.994,-0.275L2.042,-0.275L2.042,2.869C2.042,3.955 1.653,4.798 0.875,5.43C0.113,6.046 -0.843,6.354 -1.994,6.354C-3.145,6.354 -4.101,6.046 -4.879,5.43C-5.641,4.798 -6.03,3.955 -6.03,2.869L-6.03,-1.443C-6.03,-2.529 -5.641,-3.371 -4.879,-4.004C-4.101,-4.636 -3.145,-4.944 -1.994,-4.944C-0.843,-4.944 0.113,-4.636 0.875,-4.004C1.653,-3.371 2.042,-2.529 2.042,-1.443L2.042,-1.232L0,-1.232L0,-1.492C0,-2.658 -0.811,-3.258 -1.994,-3.258C-3.177,-3.258 -3.988,-2.658 -3.988,-1.492L-3.988,2.901C-3.988,4.069 -3.177,4.668 -1.994,4.668C-0.811,4.668 0,4.069 0,2.901L0,1.41Z" style="fill:rgb(41,51,138);fill-rule:nonzero;"/>
        </g>
        <g transform="matrix(1,0,0,1,483.756,546.557)">
            <path d="M0,7.441L4.766,7.441L4.766,9.126L-2.042,9.126L-2.042,-1.685L4.766,-1.685L4.766,0.001L0,0.001L0,2.74L4.069,2.74L4.069,4.426L0,4.426L0,7.441Z" style="fill:rgb(41,51,138);fill-rule:nonzero;"/>
        </g>
        <g transform="matrix(1,0,0,1,490.239,553.122)">
            <path d="M0,-5.689C0,-6.532 0.357,-7.213 1.054,-7.715C1.75,-8.234 2.61,-8.493 3.631,-8.493C4.652,-8.493 5.511,-8.234 6.208,-7.715C6.905,-7.213 7.262,-6.532 7.262,-5.689L7.262,-4.83L5.219,-4.83L5.219,-5.689C5.219,-6.322 4.522,-6.808 3.631,-6.808C2.739,-6.808 2.042,-6.322 2.042,-5.689L2.042,-4.976C2.042,-2.642 7.521,-5.235 7.521,-0.843L7.521,-0.161C7.537,0.73 7.148,1.443 6.386,1.994C5.624,2.529 4.717,2.804 3.631,2.804C2.545,2.804 1.637,2.529 0.876,1.994C0.113,1.443 -0.259,0.73 -0.259,-0.161L-0.259,-0.778L1.783,-0.778L1.783,-0.161C1.783,0.552 2.61,1.119 3.631,1.119C4.668,1.119 5.495,0.552 5.479,-0.161L5.479,-0.843C5.479,-3.582 0,-0.794 0,-4.976L0,-5.689Z" style="fill:rgb(41,51,138);fill-rule:nonzero;"/>
        </g>
        <g transform="matrix(1,0,0,1,506.334,553.998)">
            <path d="M0,-7.441L-2.723,-7.441L-2.723,1.685L-4.766,1.685L-4.766,-7.441L-7.489,-7.441L-7.489,-9.126L0,-9.126L0,-7.441Z" style="fill:rgb(41,51,138);fill-rule:nonzero;"/>
        </g>
        <g transform="matrix(1,0,0,1,513.4,542.148)">
            <path d="M0,13.535L-0.568,11.558L-4.328,11.558L-4.879,13.535L-7.1,13.535L-3.55,2.724L-1.329,2.724L2.204,13.535L0,13.535ZM-1.572,0.989C-1.313,1.119 -0.989,1.021 -0.859,0.778L-0.503,0.163L0.437,0.713L0.097,1.313C-0.114,1.686 -0.437,1.946 -0.876,2.059C-1.313,2.173 -1.718,2.124 -2.091,1.897L-3.323,1.184C-3.566,1.054 -3.89,1.151 -4.036,1.395L-4.376,2.01L-5.333,1.46L-4.976,0.86C-4.766,0.487 -4.441,0.227 -4.004,0.114C-3.566,0 -3.161,0.049 -2.788,0.276L-1.572,0.989ZM-2.512,5.236L-3.841,9.872L-1.054,9.872L-2.367,5.236L-2.512,5.236Z" style="fill:rgb(41,51,138);fill-rule:nonzero;"/>
        </g>
        <g transform="matrix(1,0,0,1,524.94,548.178)">
            <path d="M0,4.198C0,5.284 -0.389,6.159 -1.183,6.791C-1.977,7.423 -2.95,7.748 -4.133,7.748C-5.316,7.748 -6.289,7.423 -7.084,6.791C-7.877,6.159 -8.266,5.284 -8.266,4.198L-8.266,0.016C-8.266,-1.086 -7.877,-1.961 -7.084,-2.594C-6.289,-3.226 -5.316,-3.55 -4.133,-3.55C-2.95,-3.55 -1.977,-3.226 -1.183,-2.594C-0.389,-1.961 0,-1.086 0,0.016L0,4.198ZM-2.042,-0.033C-2.042,-1.216 -2.902,-1.864 -4.133,-1.864C-5.365,-1.864 -6.224,-1.216 -6.224,-0.033L-6.224,4.23C-6.224,5.413 -5.365,6.062 -4.133,6.062C-2.902,6.062 -2.042,5.413 -2.042,4.23L-2.042,-0.033Z" style="fill:rgb(41,51,138);fill-rule:nonzero;"/>
        </g>
    </g>
</svg>
